<svg width="512" height="512" viewBox="0 0 512 512" fill="none" xmlns="http://www.w3.org/2000/svg">
  <defs>
    <linearGradient id="mark-bg" x1="58" y1="44" x2="460" y2="468" gradientUnits="userSpaceOnUse">
      <stop stop-color="#EF4444" />
      <stop offset="0.55" stop-color="#DC2626" />
      <stop offset="1" stop-color="#7F1D1D" />
    </linearGradient>
    <linearGradient id="shorts-bar" x1="314" y1="164" x2="410" y2="304" gradientUnits="userSpaceOnUse">
      <stop stop-color="#CFFAFE" />
      <stop offset="1" stop-color="#22D3EE" />
    </linearGradient>
  </defs>

  <rect x="44" y="44" width="424" height="424" rx="108" fill="url(#mark-bg)" />
  <rect x="44" y="44" width="424" height="424" rx="108" stroke="white" stroke-opacity="0.14" stroke-width="2" />

  <path d="M184 166C184 153 198 145 209 152L306 210C317 217 317 233 306 240L209 298C198 305 184 297 184 284V166Z" fill="white" />

  <rect x="322" y="176" width="60" height="24" rx="12" fill="url(#shorts-bar)" />
  <rect x="322" y="218" width="84" height="24" rx="12" fill="url(#shorts-bar)" />
  <rect x="322" y="260" width="48" height="24" rx="12" fill="url(#shorts-bar)" />

  <circle cx="384" cy="138" r="20" fill="#FDE68A" />
  <path d="M384 118L388.5 133.5L404 138L388.5 142.5L384 158L379.5 142.5L364 138L379.5 133.5L384 118Z" fill="#B45309" />
</svg>
