<svg width="912" height="708" viewBox="0 0 912 708" fill="none" xmlns="http://www.w3.org/2000/svg">
  <defs>
    <linearGradient id="bg" x1="20" y1="20" x2="880" y2="690" gradientUnits="userSpaceOnUse">
      <stop stop-color="#EEF2FF"/>
      <stop offset="1" stop-color="#F8FAFC"/>
    </linearGradient>
  </defs>
  <rect width="912" height="708" rx="34" fill="url(#bg)"/>
  <rect x="44" y="44" width="824" height="620" rx="28" fill="#FFFFFF" stroke="#CBD5E1" stroke-width="3"/>

  <text x="86" y="120" fill="#0F172A" font-size="34" font-family="Inter, Arial, sans-serif" font-weight="800">Repeatable Weekly Playbook</text>

  <g transform="translate(88,170)">
    <rect width="736" height="114" rx="18" fill="#F8FAFC" stroke="#CBD5E1" stroke-width="2"/>
    <circle cx="48" cy="57" r="24" fill="#2563EB"/>
    <path d="M38 57L46 65L58 49" stroke="white" stroke-width="5" stroke-linecap="round" stroke-linejoin="round"/>
    <text x="94" y="66" fill="#1E293B" font-size="30" font-family="Inter, Arial, sans-serif" font-weight="700">Hook Pattern Selection</text>
  </g>

  <g transform="translate(88,308)">
    <rect width="736" height="114" rx="18" fill="#F8FAFC" stroke="#CBD5E1" stroke-width="2"/>
    <circle cx="48" cy="57" r="24" fill="#0EA5E9"/>
    <path d="M36 57H60" stroke="white" stroke-width="5" stroke-linecap="round"/>
    <path d="M48 45V69" stroke="white" stroke-width="5" stroke-linecap="round"/>
    <text x="94" y="66" fill="#1E293B" font-size="30" font-family="Inter, Arial, sans-serif" font-weight="700">Clip Structure Template</text>
  </g>

  <g transform="translate(88,446)">
    <rect width="736" height="114" rx="18" fill="#F8FAFC" stroke="#CBD5E1" stroke-width="2"/>
    <circle cx="48" cy="57" r="24" fill="#22C55E"/>
    <path d="M38 57L46 65L58 49" stroke="white" stroke-width="5" stroke-linecap="round" stroke-linejoin="round"/>
    <text x="94" y="66" fill="#1E293B" font-size="30" font-family="Inter, Arial, sans-serif" font-weight="700">Caption and Packaging QA</text>
  </g>

  <text x="88" y="614" fill="#475569" font-size="24" font-family="Inter, Arial, sans-serif" font-weight="500">
    Same checklist, better speed, more stable output quality.
  </text>
</svg>
