<svg width="912" height="708" viewBox="0 0 912 708" fill="none" xmlns="http://www.w3.org/2000/svg">
  <defs>
    <linearGradient id="bg" x1="30" y1="30" x2="872" y2="684" gradientUnits="userSpaceOnUse">
      <stop stop-color="#E2E8F0"/>
      <stop offset="1" stop-color="#F8FAFC"/>
    </linearGradient>
  </defs>
  <rect width="912" height="708" rx="34" fill="url(#bg)"/>
  <rect x="44" y="44" width="824" height="620" rx="28" fill="#FFFFFF" stroke="#CBD5E1" stroke-width="3"/>

  <text x="92" y="120" fill="#0F172A" font-size="34" font-family="Inter, Arial, sans-serif" font-weight="800">Frictionless Production Pipeline</text>

  <g transform="translate(94,190)">
    <rect width="170" height="94" rx="18" fill="#111827"/>
    <text x="28" y="56" fill="#F8FAFC" font-size="24" font-family="Inter, Arial, sans-serif" font-weight="700">Script</text>
  </g>
  <g transform="translate(298,190)">
    <rect width="170" height="94" rx="18" fill="#2563EB"/>
    <text x="42" y="56" fill="#EFF6FF" font-size="24" font-family="Inter, Arial, sans-serif" font-weight="700">Clips</text>
  </g>
  <g transform="translate(502,190)">
    <rect width="170" height="94" rx="18" fill="#0EA5E9"/>
    <text x="26" y="56" fill="#ECFEFF" font-size="24" font-family="Inter, Arial, sans-serif" font-weight="700">Captions</text>
  </g>
  <g transform="translate(706,190)">
    <rect width="112" height="94" rx="18" fill="#22C55E"/>
    <text x="16" y="56" fill="#F0FDF4" font-size="24" font-family="Inter, Arial, sans-serif" font-weight="700">Ship</text>
  </g>

  <path d="M270 237H286" stroke="#64748B" stroke-width="6" stroke-linecap="round"/>
  <path d="M474 237H490" stroke="#64748B" stroke-width="6" stroke-linecap="round"/>
  <path d="M678 237H694" stroke="#64748B" stroke-width="6" stroke-linecap="round"/>
  <path d="M280 229L292 237L280 245" stroke="#64748B" stroke-width="6" stroke-linecap="round" stroke-linejoin="round"/>
  <path d="M484 229L496 237L484 245" stroke="#64748B" stroke-width="6" stroke-linecap="round" stroke-linejoin="round"/>
  <path d="M688 229L700 237L688 245" stroke="#64748B" stroke-width="6" stroke-linecap="round" stroke-linejoin="round"/>

  <rect x="94" y="330" width="724" height="264" rx="20" fill="#F8FAFC" stroke="#CBD5E1" stroke-width="2"/>
  <rect x="126" y="366" width="194" height="20" rx="10" fill="#E2E8F0"/>
  <rect x="126" y="398" width="292" height="20" rx="10" fill="#E2E8F0"/>
  <rect x="126" y="430" width="248" height="20" rx="10" fill="#E2E8F0"/>

  <rect x="458" y="366" width="328" height="188" rx="16" fill="#111827"/>
  <rect x="478" y="388" width="112" height="12" rx="6" fill="#F59E0B"/>
  <rect x="478" y="408" width="220" height="10" rx="5" fill="#64748B"/>
  <rect x="478" y="426" width="202" height="10" rx="5" fill="#64748B"/>
  <rect x="478" y="444" width="186" height="10" rx="5" fill="#64748B"/>
  <rect x="478" y="480" width="120" height="40" rx="10" fill="#EF4444"/>
</svg>
